<svg id="图层_1" data-name="图层 1" xmlns="http://www.w3.org/2000/svg" viewBox="0 0 401 401"><defs><style>.cls-1{fill:none;stroke:#fff;stroke-linecap:round;stroke-miterlimit:10;stroke-width:15px;stroke-dasharray:0 35;}.cls-2{fill:#fff;}.cls-3{fill:#e40b7b;}</style></defs><circle class="cls-1" cx="200.5" cy="200.5" r="193"/><path class="cls-2" d="M200.51,48q64.63,0,108.79,44.54t44.14,107.61q0,35.48-15.17,58.73t-43.95,23.26q-28.74,0-43.32-27.18a1.08,1.08,0,0,0-1.85-.11Q229.92,282.11,195,282.12q-32.33,0-54.4-22.67t-22.07-57.74q0-34.68,22.07-57.55t52.82-22.86q30.1,0,50.13,22.88a1.07,1.07,0,0,0,.81.37h0a1.08,1.08,0,0,0,1.09-1.08V127.9a1.08,1.08,0,0,1,1.09-1.08h26.2a1.08,1.08,0,0,1,1.09,1.08V229.69a31.79,31.79,0,0,0,5.72,18.53q5.7,8.28,17.54,8.28,28,0,28-56.37,0-52-36.26-87.9T200.51,76.36q-52,0-88.3,35.87T76,200.13q0,52,36.26,87.9t88.3,35.87q27.32,0,49-10.53a1.08,1.08,0,0,1,1.47.56l10.2,24.76a1.1,1.1,0,0,1-.56,1.41q-27.22,12.18-60.13,12.18-65.44,0-110-44.35T46,200.13q0-63.06,44.74-107.61T200.51,48ZM164,238.36a48.06,48.06,0,0,0,67.41,0q14-13.79,14-36.65t-14-36.66a48.06,48.06,0,0,0-67.41,0q-14,13.8-14,36.66T164,238.36Z" transform="translate(0.78 0.37)"/><circle class="cls-3" cx="286.35" cy="311.63" r="17.85"/></svg>