<svg id="图层_1" data-name="图层 1" xmlns="http://www.w3.org/2000/svg" viewBox="0 0 391.99 179.59"><defs><style>.cls-1{fill:#fff;}</style></defs><path class="cls-1" d="M193.52,207.53v75.21a7.31,7.31,0,0,1-7.46,7.63,7,7,0,0,1-6.53-6.14c-.09-1-.07-1.94-.07-2.91q0-36,0-71.95c0-4-1.86-6.75-5-8a7.45,7.45,0,0,0-10,6.26c-.05.63,0,1.26,0,1.89q0,31.43,0,62.87c0,3-1,5.47-3.72,7a7,7,0,0,1-10.32-5.94c.08-9.19,0-18.39,0-27.58,0-37.64.09-75.27-.06-112.9a22.39,22.39,0,0,1,13.57-20.5c9.82-3.92,22.93,1.15,27.37,10.77a24.45,24.45,0,0,1,2.31,10.42Q193.48,170.61,193.52,207.53Zm-14.06-48.6c0-8.22.08-16.44-.06-24.66a12.07,12.07,0,0,0-1.33-5.36,7.1,7.1,0,0,0-7.95-3.34,7.52,7.52,0,0,0-5.69,7.26q0,26,0,52.07a7.33,7.33,0,0,0,7.4,7.21c4.31-.1,7.53-3,7.6-8.17C179.54,175.61,179.46,167.27,179.46,158.93Z" transform="translate(-4.59 -110.78)"/><path class="cls-1" d="M207.4,133.59c0-7.89,3.11-14.42,9.7-19,6.22-4.29,12.91-4.88,20-2.25a21.8,21.8,0,0,1,12.87,12,23.17,23.17,0,0,1,1.77,9.67q0,30.92,0,61.83t0,61.82c0,7.71-2.8,14.08-9.13,18.52-14.29,10-32,2-34.65-13.71a43.23,43.23,0,0,1-.58-7.1ZM222,195.52V257c0,.69,0,1.37,0,2.06a7.54,7.54,0,0,0,9.28,6.61c4-1.15,5.87-3.49,5.88-7.69q0-17,0-33.9V168.94c0-11.82,0-23.64,0-35.45a7.55,7.55,0,0,0-4.87-7.53c-4.87-2.1-10.33,1.79-10.33,7.39Q222,164.45,222,195.52Z" transform="translate(-4.59 -110.78)"/><path class="cls-1" d="M76.79,233.75c0,3.85-1.78,6.22-5.42,7.31a6.88,6.88,0,0,1-8.47-5.79c-.07-.85,0-1.71,0-2.56q0-25,0-50c0-8.5-.1-17-.1-25.5a6.57,6.57,0,0,1,3.93-6.32,6.84,6.84,0,0,1,7.43.77,7,7,0,0,1,2.7,6" transform="translate(-4.59 -110.78)"/><path class="cls-1" d="M338.34,195.7q0,19,0,38c0,3.9-1.73,6.23-5.37,7.34a7.07,7.07,0,0,1-8.36-4.92,11.13,11.13,0,0,1-.29-2.37q0-38.11,0-76.22c0-5,4-8.18,8.8-7.14a6.8,6.8,0,0,1,5.12,5.56,19.13,19.13,0,0,1,.12,2.39q0,18.67,0,37.34Z" transform="translate(-4.59 -110.78)"/><path class="cls-1" d="M309.35,195.66q0,14.39,0,28.76c0,2.78-.77,5.21-3.22,6.78a6.69,6.69,0,0,1-7.29.29,6.92,6.92,0,0,1-3.7-6.47c-.06-13.47,0-26.93,0-40.4,0-6.05,0-12.09,0-18.14a7.09,7.09,0,0,1,9.74-6.93c2.74.94,4.46,3.63,4.47,7.19Q309.37,181.2,309.35,195.66Z" transform="translate(-4.59 -110.78)"/><path class="cls-1" d="M92.1,169.84c.05-5.4,4.48-8.6,9.58-6.82a6.29,6.29,0,0,1,4.26,5.11,12.69,12.69,0,0,1,.16,2.05c0,17,0,34,0,51,0,5-3.37,7.47-6.59,7.69-4.19.29-7.41-2.88-7.43-7.33Z" transform="translate(-4.59 -110.78)"/><path class="cls-1" d="M367.63,195.74c0,3.94.1,7.88,0,11.81A7.16,7.16,0,0,1,355.73,213c-1.91-1.62-2.37-3.89-2.39-6.2-.07-7.25-.06-14.5,0-21.75,0-2.87.58-5.61,3.29-7.29a7.17,7.17,0,0,1,11,6C367.72,187.74,367.63,191.74,367.63,195.74Z" transform="translate(-4.59 -110.78)"/><path class="cls-1" d="M33.73,195.68c0-3.94,0-7.88,0-11.81,0-4.43,2.87-7.23,7.12-7.19a7.11,7.11,0,0,1,6.94,7.38c0,7.88,0,15.76,0,23.63a7.16,7.16,0,0,1-5.08,6.76,6.78,6.78,0,0,1-7.81-2.75,9.22,9.22,0,0,1-1.11-4.2c-.15-3.94-.06-7.88-.06-11.82Z" transform="translate(-4.59 -110.78)"/><path class="cls-1" d="M389.61,202.7a7,7,0,1,1,7-7.06A6.86,6.86,0,0,1,389.61,202.7Z" transform="translate(-4.59 -110.78)"/><path class="cls-1" d="M4.61,195.76c-.29-4.25,3.44-7,6.91-7a6.93,6.93,0,0,1,7.08,7,7,7,0,0,1-7,7C8.14,202.85,4.3,199.72,4.61,195.76Z" transform="translate(-4.59 -110.78)"/><rect class="cls-1" x="116.42" y="18.46" width="14.41" height="132.42" rx="6.29"/><rect class="cls-1" x="261.88" y="18.46" width="14.41" height="132.42" rx="6.29"/></svg>